<svg width="77" height="58" viewBox="0 0 77 58" fill="none" xmlns="http://www.w3.org/2000/svg">
<path d="M0.414879 43.1248L0.510719 43.7688L0.610382 43.7458C1.29153 46.9312 2.86067 49.8586 5.13624 52.1893C7.4118 54.5201 10.3008 56.1588 13.4689 56.9161C16.6371 57.6733 19.9548 57.5181 23.0384 56.4683C26.122 55.4185 28.8453 53.517 30.8933 50.984C32.9412 48.4509 34.2301 45.3898 34.6108 42.1547C34.9915 38.9197 34.4484 35.6429 33.0445 32.7037C31.6405 29.7644 29.433 27.2827 26.6773 25.5457C23.9217 23.8088 20.7306 22.8876 17.4732 22.8887C16.6184 22.8887 15.798 23.019 14.9815 23.1378C15.246 22.2485 15.5182 21.3438 15.9552 20.5312C16.3922 19.3505 17.0745 18.327 17.753 17.2958C18.3204 16.1803 19.3209 15.4252 20.0569 14.4707C20.8274 13.543 21.8777 12.9258 22.7095 12.1553C23.526 11.3503 24.5955 10.9478 25.4465 10.3805C26.3359 9.87067 27.1102 9.30717 27.9382 9.03883L30.0044 8.18784L31.8214 7.43267L29.966 -0.000167847L27.6775 0.551838C26.9454 0.735836 26.0522 0.9505 25.0364 1.20734C23.9975 1.399 22.8897 1.92417 21.6554 2.40334C20.4402 2.9515 19.0257 3.31567 17.7147 4.1935C16.396 5.02917 14.8742 5.72684 13.5325 6.84617C12.233 8 10.6652 9.00051 9.50755 10.4648C8.24255 11.8372 6.99288 13.2785 6.02305 14.9192C4.89988 16.4832 4.13705 18.2005 3.33205 19.8987C2.60371 21.5968 2.01721 23.3333 1.53805 25.02C0.629547 28.401 0.223213 31.6133 0.0660477 34.3618C-0.0642853 37.1142 0.0123749 39.4027 0.173378 41.0587C0.227249 41.7502 0.307808 42.4395 0.414879 43.1248ZM42.5815 43.1248L42.6774 43.7688L42.777 43.7458C43.4582 46.9312 45.0273 49.8586 47.3029 52.1893C49.5785 54.5201 52.4675 56.1588 55.6356 56.9161C58.8037 57.6733 62.1215 57.5181 65.2051 56.4683C68.2887 55.4185 71.012 53.517 73.0599 50.984C75.1079 48.4509 76.3968 45.3898 76.7775 42.1547C77.1582 38.9197 76.6151 35.6429 75.2111 32.7037C73.8071 29.7644 71.5996 27.2827 68.844 25.5457C66.0884 23.8088 62.8973 22.8876 59.6399 22.8887C58.785 22.8887 57.9647 23.019 57.1482 23.1378C57.4127 22.2485 57.6849 21.3438 58.1219 20.5312C58.5589 19.3505 59.2412 18.327 59.9197 17.2958C60.487 16.1803 61.4875 15.4252 62.2235 14.4707C62.994 13.543 64.0444 12.9258 64.8762 12.1553C65.6927 11.3503 66.7622 10.9478 67.6132 10.3805C68.5025 9.87067 69.2769 9.30717 70.1049 9.03883L72.171 8.18784C73.3249 7.71634 73.9842 7.44033 73.9842 7.44033L72.1289 0.00750351L69.8404 0.559502C69.1082 0.7435 68.215 0.958172 67.1992 1.215C66.1604 1.40667 65.0525 1.93184 63.8182 2.41101C62.603 2.95918 61.1885 3.32334 59.8775 4.20117C58.5589 5.03683 57.037 5.7345 55.6954 6.85384C54.3959 8.00767 52.828 9.00817 51.6704 10.4725C50.4054 11.8448 49.1557 13.2862 48.1859 14.9268C47.0627 16.4908 46.2999 18.2082 45.4949 19.9063C44.7665 21.6045 44.18 23.341 43.7009 25.0277C42.7924 28.4087 42.386 31.621 42.2289 34.3695C42.0985 37.1218 42.1752 39.4103 42.3362 41.0663C42.3935 41.7552 42.4753 42.4418 42.5815 43.1248Z" fill="#303133"/>
</svg>
